<svg width="24" height="24" viewBox="0 0 24 24" fill="none" xmlns="http://www.w3.org/2000/svg">
<g clip-path="url(#clip0_2379_53286)">
<path d="M22.5371 4.275H6.41211V1.70625C6.41211 1.275 6.74961 0.9375 7.16211 0.9375H21.7684C22.1996 0.9375 22.5371 1.275 22.5371 1.70625V4.275Z" fill="#0464B8"/>
<path d="M11.7934 4.27539H6.41211V9.26289H11.7934V4.27539Z" fill="#0377D4"/>
<path d="M17.1742 4.27539H11.793V9.26289H17.1742V4.27539Z" fill="#29A7EB"/>
<path d="M22.5561 4.27539H17.1748V9.26289H22.5561V4.27539Z" fill="#4FD8FF"/>
<path d="M11.7934 9.2627H6.41211V14.2502H11.7934V9.2627Z" fill="#1681D7"/>
<path d="M17.1742 9.2627H11.793V14.2502H17.1742V9.2627Z" fill="#0178D4"/>
<path d="M22.5561 9.2627H17.1748V14.2502H22.5561V9.2627Z" fill="#29A7EB"/>
<path d="M17.1742 14.2314H11.793V19.2189H17.1742V14.2314Z" fill="#0464B8"/>
<path d="M22.5561 14.2314H17.1748V19.2189H22.5561V14.2314Z" fill="#1681D7"/>
<path d="M23.7941 12.9566L22.5566 13.6879V11.5879L23.7754 12.2629C24.0566 12.3941 24.0566 12.7879 23.7941 12.9566Z" fill="#042071"/>
<path d="M23.7939 12.9566L23.6814 13.0316L23.5502 13.1066L22.5564 13.6879V13.6691L5.98145 23.1566H22.6877C23.4002 23.1566 23.9627 22.5754 23.9627 21.8816L23.9814 12.6191C24.0002 12.7316 23.9252 12.8816 23.7939 12.9566Z" fill="#168FDE"/>
<path d="M22.875 23.1562H6.15C5.4375 23.1562 4.875 22.575 4.875 21.8812V12.8438L22.875 23.1562Z" fill="#29A7EB"/>
<path d="M11.0623 18.0938H1.1248C0.468555 18.0938 -0.0751953 17.55 -0.0751953 16.8937V7.10625C-0.0751953 6.45 0.468555 5.90625 1.1248 5.90625H11.0623C11.7186 5.90625 12.2623 6.45 12.2623 7.10625V16.8937C12.2623 17.55 11.7373 18.0938 11.0623 18.0938Z" fill="#1681D7"/>
<path d="M6.09336 15.5439C4.16211 15.5439 2.94336 14.0814 2.94336 12.1314C2.94336 10.0689 4.27461 8.60645 6.18711 8.60645C8.17461 8.60645 9.33711 10.0877 9.33711 12.0002C9.35586 14.2689 7.96836 15.5439 6.09336 15.5439ZM6.16836 14.5689C7.36836 14.5689 8.04336 13.4627 8.04336 12.0564C8.04336 10.7814 7.40586 9.6002 6.16836 9.6002C4.93086 9.6002 4.27461 10.7627 4.27461 12.1127C4.27461 13.4627 4.94961 14.5689 6.16836 14.5689Z" fill="white"/>
<path opacity="0.2" d="M12.2812 6.99414C12.2812 7.03164 12.2812 7.06914 12.2812 7.10664V16.8941C12.2812 17.5504 11.7375 18.0941 11.0812 18.0941H4.875V19.1629H12.075C12.7313 19.1629 13.275 18.6191 13.275 17.9629V8.17539C13.275 7.57539 12.8438 7.06914 12.2812 6.99414Z" fill="black"/>
</g>
<defs>
<clipPath id="clip0_2379_53286">
<rect width="24" height="24" fill="white"/>
</clipPath>
</defs>
</svg>
