<svg width="21" height="15" viewBox="0 0 21 15" fill="none" xmlns="http://www.w3.org/2000/svg">
<path d="M21 3.84375L18.5 5.1328L16 7.35935V14.9999H19.5C20.3285 14.9999 21 14.3704 21 13.5937V3.84375Z" fill="#4CAF50"/>
<path d="M0 3.84375L1.807 4.64531L5 7.35935V14.9999H1.5C0.6715 14.9999 0 14.3704 0 13.5937V3.84375Z" fill="#1E88E5"/>
<path d="M16 1.5L10.5 5.36716L5 1.5L4.5 4.21873L5 7.35934L10.5 11.2265L16 7.35934L16.5 4.21873L16 1.5Z" fill="#E53935"/>
<path d="M0 2.01468V3.84373L5 7.35933V1.49999L3.438 0.402654C3.066 0.141093 2.614 0 2.149 0C0.962 0 0 0.90187 0 2.01468Z" fill="#C62828"/>
<path d="M21 2.01468V3.84373L16 7.35933V1.49999L17.562 0.402654C17.934 0.141093 18.386 0 18.851 0C20.038 0 21 0.90187 21 2.01468Z" fill="#FBC02D"/>
</svg>
