<svg width="27" height="27" viewBox="0 0 27 27" fill="none" xmlns="http://www.w3.org/2000/svg">
<path d="M15.1878 10.125C12.7062 10.125 10.6875 12.1437 10.6875 14.6253C10.6875 17.1063 12.7062 19.125 15.1878 19.125C17.6688 19.125 19.6875 17.1063 19.6875 14.6253C19.6875 12.1437 17.6688 10.125 15.1878 10.125ZM16.3125 14.625C16.3125 15.2452 15.8077 15.75 15.1875 15.75C14.5673 15.75 14.0625 15.2452 14.0625 14.625C14.0625 14.0048 14.5673 13.5 15.1875 13.5C15.8077 13.5 16.3125 14.0048 16.3125 14.625Z" fill="#009ADA"/>
<path d="M23.625 7.875H20.25V19.125H23.625V7.875Z" fill="#009ADA"/>
<path d="M25.875 19.125C26.4963 19.125 27 18.6213 27 18C27 17.3787 26.4963 16.875 25.875 16.875C25.2537 16.875 24.75 17.3787 24.75 18C24.75 18.6213 25.2537 19.125 25.875 19.125Z" fill="#009ADA"/>
<path d="M4.37531 7.875L0 19.125H3.46893L4.07153 17.4375H7.69812L8.30072 19.125H11.7697L7.39435 7.875H4.37531ZM6.49292 14.0625H5.27673L5.88483 12.3602L6.49292 14.0625Z" fill="#009ADA"/>
<path d="M15.1878 10.125C12.7062 10.125 10.6875 12.1437 10.6875 14.6253C10.6875 17.1063 12.7062 19.125 15.1878 19.125C17.6688 19.125 19.6875 17.1063 19.6875 14.6253C19.6875 12.1437 17.6688 10.125 15.1878 10.125ZM15.1875 15.75C14.5673 15.75 14.0625 15.2452 14.0625 14.625C14.0625 14.0048 14.5673 13.5 15.1875 13.5C15.8077 13.5 16.3125 14.0048 16.3125 14.625C16.3125 15.2452 15.8077 15.75 15.1875 15.75ZM20.25 19.125H23.625V7.875H20.25V19.125ZM25.875 16.875C25.2548 16.875 24.75 17.3798 24.75 18C24.75 18.6202 25.2548 19.125 25.875 19.125C26.4952 19.125 27 18.6202 27 18C27 17.3798 26.4952 16.875 25.875 16.875ZM4.37531 7.875L0 19.125H3.46893L4.07153 17.4375H7.69812L8.30072 19.125H11.7697L7.39435 7.875H4.37531ZM5.27673 14.0625L5.88483 12.3602L6.49292 14.0625H5.27673Z" fill="url(#paint0_linear_2379_53289)"/>
<defs>
<linearGradient id="paint0_linear_2379_53289" x1="3.54913" y1="9.64673" x2="26.1064" y2="20.1654" gradientUnits="userSpaceOnUse">
<stop stop-color="white" stop-opacity="0.2"/>
<stop offset="1" stop-color="white" stop-opacity="0"/>
</linearGradient>
</defs>
</svg>
