<svg width="19" height="19" viewBox="0 0 19 19" fill="none" xmlns="http://www.w3.org/2000/svg">
<g clip-path="url(#clip0_2379_53292)">
<path fill-rule="evenodd" clip-rule="evenodd" d="M9.49902 0.000976562C14.746 0.000976562 18.999 4.2546 18.999 9.50098C18.999 14.7479 14.746 19.001 9.49902 19.001C4.25205 19.001 -0.000976562 14.7479 -0.000976562 9.50098C-0.000976562 4.2546 4.25205 0.000976562 9.49902 0.000976562Z" fill="#720E9E"/>
<path d="M13.8492 7.5L13.8593 7.49822L14.174 7.14791L14.1586 7.14672L14.1918 7.09447H9.78322L9.95303 7.69772H11.156L9.13128 9.571C8.71803 8.96834 7.74962 7.58312 7.07394 6.54406H8.32972V6.11656L8.34694 5.99366L8.32972 5.99128V5.94141H3.5625V6.54406H5.05341C5.63231 7.02203 8.14209 10.0692 8.23353 10.3601C8.27034 10.6326 8.32259 12.2411 8.21453 12.3622C8.0845 12.5492 6.72659 12.4483 6.48731 12.4661L6.47841 13.0569C6.91541 13.07 8.22641 13.0563 8.66875 13.0563C9.54038 13.0563 11.0669 13.0338 11.2818 13.051L11.3086 12.4917L9.55403 12.4655C9.51722 12.212 9.47684 10.6118 9.51366 10.4373C9.67931 9.93081 12.3714 7.83487 12.6481 7.75591L12.9087 7.69712H13.7222L13.8492 7.5ZM13.1913 11.6806L13.9537 11.7388L14.8426 8.47909C14.6941 8.47375 13.3457 8.35322 13.1706 8.32056L13.1913 11.6806ZM13.0595 12.2031L13.0637 12.9993L13.4496 13.0314L13.8664 13.0605L13.9887 12.2815L13.5494 12.2613L13.0595 12.2031Z" fill="white"/>
</g>
<defs>
<clipPath id="clip0_2379_53292">
<rect width="19" height="19" fill="white"/>
</clipPath>
</defs>
</svg>
