<?xml version="1.0" encoding="utf-8"?>
<!-- Generator: Adobe Illustrator 24.1.0, SVG Export Plug-In . SVG Version: 6.00 Build 0)  -->
<svg version="1.1" id="Layer_1" xmlns="http://www.w3.org/2000/svg" xmlns:xlink="http://www.w3.org/1999/xlink" x="0px" y="0px"
	 viewBox="0 0 236.82 41.52" style="enable-background:new 0 0 236.82 41.52;" xml:space="preserve">
<style type="text/css">
	.st0{fill:#2E2E30;}
</style>
<g>
	<path class="st0" d="M26.54,6.55c-2.8-1.46-6.17-2.18-10.12-2.18H0v2.99L4.15,7.8c0.07,2.25,0.11,4.53,0.11,6.83s0,4.6,0,6.88v1.88
		c0,2.36,0,4.7,0,7.02s-0.04,4.61-0.11,6.86L0,37.71v2.99h15.43c4.05,0,7.57-0.72,10.53-2.16c2.97-1.44,5.26-3.52,6.88-6.25
		c1.62-2.73,2.43-6.01,2.43-9.84c0-3.76-0.76-6.98-2.27-9.68C31.5,10.08,29.34,8.01,26.54,6.55z M22.97,33.59
		c-1.82,2.6-4.32,3.9-7.49,3.9h-1.82c-0.04-2.32-0.07-4.66-0.08-7.02c-0.02-2.36-0.03-4.74-0.03-7.13v-1.82
		c0-2.36,0.01-4.7,0.03-7.02c0.02-2.32,0.05-4.63,0.08-6.91h1.88c3.13,0,5.61,1.27,7.44,3.81c1.82,2.54,2.74,6.25,2.74,11.11
		C25.71,27.3,24.8,30.99,22.97,33.59z"/>
	<path class="st0" d="M60.72,14.13c-0.88-0.68-1.94-1.02-3.15-1.02c-1.36,0-2.75,0.6-4.15,1.8c-1.4,1.2-2.49,2.98-3.26,5.34
		l-0.5-6.53l-1-0.61l-10.89,3.7v2.16l3.37,0.5c0.04,0.74,0.06,1.39,0.08,1.96c0.02,0.57,0.04,1.19,0.06,1.85
		c0.02,0.66,0.03,1.51,0.03,2.54v3.26c0,1.14,0,2.49,0,4.04s-0.02,3-0.06,4.37l-3.04,0.61v2.6h16.37v-2.6l-4.37-0.94
		c-0.04-1.29-0.06-2.67-0.06-4.15c0-1.47,0-2.78,0-3.93v-3.76c0.29-1.29,0.78-2.52,1.47-3.71c0.68-1.18,1.43-2.16,2.24-2.93
		l0.33,0.44c1.29,1.73,2.71,2.6,4.26,2.6c1.11,0,2.03-0.4,2.76-1.19c0.74-0.79,1.12-1.91,1.16-3.35
		C62.16,15.83,61.61,14.81,60.72,14.13z"/>
	<path class="st0" d="M88.7,37.29c-0.26,0.17-0.54,0.25-0.83,0.25c-0.81,0-1.22-0.53-1.22-1.6V23.55c0-3.72-0.77-6.4-2.29-8.02
		c-1.53-1.62-4.06-2.43-7.6-2.43c-3.98,0-7.06,0.72-9.23,2.16c-2.18,1.44-3.34,3.3-3.48,5.58c0.44,1.84,1.68,2.76,3.71,2.76
		c1.07,0,2-0.41,2.79-1.22c0.79-0.81,1.21-2.12,1.24-3.93l0.28-2.43c0.29-0.04,0.55-0.05,0.77-0.05c0.22,0,0.46,0,0.72,0
		c1.77,0,2.96,0.44,3.57,1.33s0.91,2.56,0.91,5.03v1.83c-0.77,0.18-1.53,0.37-2.27,0.55c-0.74,0.18-1.38,0.37-1.94,0.55
		c-2.84,0.81-5.03,1.68-6.58,2.6c-1.55,0.92-2.62,1.92-3.21,2.99c-0.59,1.07-0.88,2.27-0.88,3.59c0,2.29,0.67,4.04,2.02,5.25
		c1.34,1.22,3.09,1.82,5.23,1.82c1.92,0,3.42-0.36,4.51-1.08c1.09-0.72,2.22-1.7,3.4-2.96c0.85,2.65,2.88,3.98,6.08,3.98
		c1.66,0,3.01-0.32,4.06-0.97s1.91-1.71,2.57-3.18l-1.49-1C89.23,36.81,88.96,37.13,88.7,37.29z M78.03,35.5
		c-0.96,0.66-1.66,1.09-2.1,1.27c-0.44,0.18-0.87,0.28-1.27,0.28c-0.92,0-1.71-0.33-2.35-1c-0.65-0.66-0.97-1.68-0.97-3.04
		c0-1.29,0.37-2.41,1.11-3.35c0.74-0.94,1.73-1.67,2.99-2.18c0.33-0.15,0.73-0.3,1.19-0.47c0.46-0.17,0.93-0.32,1.41-0.47V35.5z"/>
	<path class="st0" d="M124.9,36.99c-0.81,0-1.48-0.3-2.02-0.91c-0.54-0.61-0.8-1.56-0.8-2.85V17.75h5.81v-3.76h-5.75l0.11-7.8h-4.81
		l-2.88,7.8h-9.84c-0.07-2.91,0.07-5.21,0.44-6.88c0.37-1.68,1.05-3.03,2.05-4.06l0.44,0.66c0.77,1.36,1.57,2.36,2.38,2.99
		c0.81,0.63,1.68,0.94,2.6,0.94c1.25,0,2.22-0.36,2.9-1.08c0.68-0.72,1.04-1.59,1.08-2.63c-0.37-1.47-1.18-2.5-2.43-3.07
		c-1.25-0.57-2.65-0.86-4.2-0.86c-1.59,0-3.23,0.3-4.95,0.91s-3.25,1.59-4.62,2.96c-1.18,1.22-2.11,2.59-2.79,4.12
		c-0.68,1.53-1.17,3.55-1.47,6.05l-3.7,0.44v3.26h3.59v11.33c0,1.4-0.01,2.8-0.03,4.2c-0.02,1.4-0.05,2.8-0.08,4.2l-3.04,0.61v2.6
		h16.26v-2.6l-4.26-0.88c-0.04-1.36-0.06-2.72-0.06-4.06c0-1.34,0-2.7,0-4.06V17.75h8.46v10.56c0,1.07-0.01,2.02-0.03,2.85
		c-0.02,0.83-0.03,1.72-0.03,2.68c0,2.73,0.7,4.69,2.1,5.89c1.4,1.2,3.35,1.8,5.86,1.8c2.03,0,3.7-0.39,5.03-1.16
		c1.33-0.77,2.34-1.86,3.04-3.26l-1.33-1.33C126.87,36.59,125.86,36.99,124.9,36.99z"/>
	<path class="st0" d="M138.38,9.01c1.29,0,2.4-0.42,3.32-1.24c0.92-0.83,1.38-1.87,1.38-3.12c0-1.29-0.46-2.35-1.38-3.18
		c-0.92-0.83-2.03-1.24-3.32-1.24c-1.29,0-2.4,0.42-3.32,1.24c-0.92,0.83-1.38,1.89-1.38,3.18c0,1.25,0.46,2.29,1.38,3.12
		C135.98,8.6,137.09,9.01,138.38,9.01z"/>
	<path class="st0" d="M142.86,33.15c0-1.57,0-2.92,0-4.06v-7.35l0.17-8.02l-0.94-0.61l-11.61,3.7v2.16l3.43,0.5
		c0.07,1.11,0.12,2.17,0.14,3.18s0.03,2.28,0.03,3.79v2.65c0,1.14,0,2.49,0,4.04s-0.02,2.99-0.06,4.31l-2.99,0.66v2.6h14.65v-2.6
		l-2.76-0.55C142.88,36.18,142.86,34.71,142.86,33.15z"/>
	<polygon class="st0" points="164.46,16.42 167.95,17.08 163.13,31.3 157.94,17.14 161.42,16.42 161.42,13.99 145.72,13.99 
		145.72,16.42 148.43,16.97 158.38,40.81 162.58,40.81 171.71,17.03 174.91,16.42 174.91,13.99 164.46,13.99 	"/>
	<path class="st0" d="M184.26,9.01c1.29,0,2.4-0.42,3.32-1.24c0.92-0.83,1.38-1.87,1.38-3.12c0-1.29-0.46-2.35-1.38-3.18
		c-0.92-0.83-2.03-1.24-3.32-1.24c-1.29,0-2.4,0.42-3.32,1.24c-0.92,0.83-1.38,1.89-1.38,3.18c0,1.25,0.46,2.29,1.38,3.12
		C181.86,8.6,182.97,9.01,184.26,9.01z"/>
	<path class="st0" d="M188.73,33.15c0-1.57,0-2.92,0-4.06v-7.35l0.17-8.02l-0.94-0.61l-11.61,3.7v2.16l3.43,0.5
		c0.07,1.11,0.12,2.17,0.14,3.18c0.02,1.01,0.03,2.28,0.03,3.79v2.65c0,1.14,0,2.49,0,4.04s-0.02,2.99-0.06,4.31l-2.99,0.66v2.6
		h14.65v-2.6l-2.76-0.55C188.75,36.18,188.73,34.71,188.73,33.15z"/>
	<path class="st0" d="M208.78,23.78L206.07,23c-1.92-0.59-3.17-1.17-3.76-1.74c-0.59-0.57-0.88-1.22-0.88-1.96
		c0-1.03,0.38-1.81,1.13-2.32c0.75-0.52,1.76-0.77,3.01-0.77c1.25,0,2.27,0.15,3.04,0.44l1.11,4.76h4.42l0.39-6.03
		c-1.44-0.74-2.85-1.3-4.23-1.69s-2.88-0.58-4.51-0.58c-3.72,0-6.58,0.88-8.57,2.63c-1.99,1.75-2.99,3.9-2.99,6.44
		c0,2.07,0.58,3.8,1.74,5.2s2.81,2.41,4.95,3.04l2.99,0.88c1.84,0.52,3.08,1.09,3.7,1.71c0.63,0.63,0.94,1.36,0.94,2.21
		c0,1.11-0.42,1.93-1.27,2.46c-0.85,0.54-2.06,0.8-3.65,0.8c-0.77,0-1.49-0.06-2.16-0.19c-0.66-0.13-1.33-0.32-1.99-0.58l-0.94-5.47
		h-4.42l-0.17,6.75c2.91,1.7,6.12,2.54,9.62,2.54c3.91,0,6.98-0.8,9.21-2.41c2.23-1.6,3.35-3.86,3.35-6.77
		c0-2.06-0.57-3.81-1.71-5.25C213.28,25.66,211.4,24.55,208.78,23.78z"/>
	<path class="st0" d="M235.44,35.77c-1.03,0.81-2.03,1.22-2.99,1.22c-0.81,0-1.48-0.3-2.02-0.91c-0.53-0.61-0.8-1.56-0.8-2.85V17.75
		h5.81v-3.76h-5.81l0.11-7.8h-5.64l-2.76,7.74l-4.09,0.55v3.26h3.59v10.56c0,1.07-0.01,2.02-0.03,2.85
		c-0.02,0.83-0.03,1.72-0.03,2.68c0,2.73,0.7,4.69,2.1,5.89c1.4,1.2,3.34,1.8,5.81,1.8c2.06,0,3.75-0.39,5.06-1.16
		c1.31-0.77,2.33-1.86,3.07-3.26L235.44,35.77z"/>
</g>
</svg>
