<svg width="38" height="39" viewBox="0 0 38 39" fill="none" xmlns="http://www.w3.org/2000/svg">
<path d="M37.5 19.0795C37.5 29.3426 29.2153 37.659 19 37.659C8.7847 37.659 0.5 29.3426 0.5 19.0795C0.5 8.81635 8.7847 0.5 19 0.5C29.2153 0.5 37.5 8.81635 37.5 19.0795Z" stroke="#FFFEF4"/>
<path fill-rule="evenodd" clip-rule="evenodd" d="M27.9963 13.0502H28V13.0544L27.9963 13.0502ZM27.2522 13.0502L10.7479 13.0502L18.6678 20.1197C18.8573 20.2887 19.1428 20.2887 19.3322 20.1197L27.2522 13.0502ZM10.0038 13.0502H10V13.0545L10.0038 13.0502ZM10 13.7262V24.4434L16.1125 19.1822L10 13.7262ZM10 25.1046V25.1088H10.0036L10 25.1046ZM10.7635 25.1088L27.2365 25.1088L21.1333 19.8556L19.9966 20.8702C19.4282 21.3775 18.5718 21.3775 18.0035 20.8702L16.8668 19.8556L10.7635 25.1088ZM27.9965 25.1088H28V25.1047L27.9965 25.1088ZM28 24.4434V13.7263L21.8876 19.1822L28 24.4434ZM9 13.0502C9 12.4979 9.44772 12.0502 10 12.0502H28C28.5523 12.0502 29 12.4979 29 13.0502V25.1088C29 25.6611 28.5523 26.1088 28 26.1088H10C9.44772 26.1088 9 25.6611 9 25.1088V13.0502Z" fill="#FFFEF4"/>
</svg>
