<svg width="38" height="39" viewBox="0 0 38 39" fill="none" xmlns="http://www.w3.org/2000/svg">
<path d="M17.0319 25.3556C23.0699 25.3556 26.3718 20.7199 26.3718 16.7003C26.3718 16.5686 26.3689 16.4376 26.3624 16.3071C27.0033 15.8777 27.5605 15.3418 28 14.732C27.4118 14.9742 26.7789 15.1372 26.1149 15.2108C26.7926 14.8342 27.313 14.2383 27.5585 13.528C26.9241 13.8765 26.2217 14.1298 25.4742 14.2664C24.8749 13.6752 24.0218 13.3054 23.0779 13.3054C21.2648 13.3054 19.7946 14.6678 19.7946 16.347C19.7946 16.5858 19.8236 16.8179 19.8796 17.0406C17.1516 16.9137 14.7324 15.703 13.1135 13.8625C12.8313 14.3119 12.6688 14.8344 12.6688 15.3914C12.6688 16.4467 13.2484 17.3784 14.1297 17.9236C13.5912 17.9083 13.0853 17.771 12.6429 17.543C12.6422 17.5557 12.6422 17.5685 12.6422 17.5818C12.6422 19.0552 13.7739 20.2852 15.2758 20.5639C15.0001 20.6336 14.71 20.671 14.4105 20.671C14.199 20.671 13.9934 20.6515 13.7934 20.6162C14.2112 21.8247 15.4232 22.7043 16.8601 22.7291C15.7364 23.5451 14.3209 24.0313 12.783 24.0313C12.5183 24.0313 12.257 24.0173 12 23.9891C13.4527 24.8519 15.1777 25.3556 17.0319 25.3556Z" fill="#FFED60"/>
<path d="M37.5 19.3305C37.5 29.5936 29.2153 37.91 19 37.91C8.7847 37.91 0.5 29.5936 0.5 19.3305C0.5 9.06733 8.7847 0.750977 19 0.750977C29.2153 0.750977 37.5 9.06733 37.5 19.3305Z" stroke="#FFED60"/>
</svg>
