<svg width="16" height="15" viewBox="0 0 16 15" fill="none" xmlns="http://www.w3.org/2000/svg">
<path d="M8.23251 6.83716H6.83716V11.0232H8.23251V6.83716Z" fill="#BDBDBD"/>
<path d="M6.83716 4.04651H8.23251V5.44186H6.83716V4.04651Z" fill="#BDBDBD"/>
<path fill-rule="evenodd" clip-rule="evenodd" d="M7.53488 15C3.34884 15 0 11.6512 0 7.53488C0 3.4186 3.34884 0 7.53488 0C11.7209 0 15.0698 3.34884 15.0698 7.53488C15.0698 11.7209 11.6512 15 7.53488 15ZM7.53488 1.04651C3.97674 1.04651 1.11628 3.90698 1.11628 7.46512C1.11628 11.0233 3.90698 13.9535 7.53488 13.9535C11.1628 13.9535 13.9535 11.093 13.9535 7.53488C13.9535 3.97674 11.093 1.04651 7.53488 1.04651Z" fill="#BDBDBD"/>
</svg>
