<svg width="38" height="39" viewBox="0 0 38 39" fill="none" xmlns="http://www.w3.org/2000/svg">
<path d="M19 12.5188C21.1333 12.5188 21.4 12.5188 22.2667 12.5858C24.4667 12.6527 25.4667 13.7238 25.5333 15.8661C25.6 16.7364 25.6 16.9372 25.6 19.0795C25.6 21.2218 25.6 21.4895 25.5333 22.2929C25.4667 24.4351 24.4 25.5063 22.2667 25.5732C21.4 25.6402 21.2 25.6402 19 25.6402C16.8667 25.6402 16.6 25.6402 15.8 25.5732C13.6 25.5063 12.6 24.4351 12.5333 22.2929C12.4667 21.4226 12.4667 21.2218 12.4667 19.0795C12.4667 16.9372 12.4667 16.6695 12.5333 15.8661C12.6 13.7238 13.6667 12.6527 15.8 12.5858C16.6 12.5188 16.8667 12.5188 19 12.5188ZM19 11.046C16.8 11.046 16.5333 11.046 15.7333 11.113C12.8 11.2469 11.2 12.8536 11.0667 15.7992C11 16.6025 11 16.8703 11 19.0795C11 21.2887 11 21.5565 11.0667 22.3598C11.2 25.3054 12.8 26.9121 15.7333 27.046C16.5333 27.113 16.8 27.113 19 27.113C21.2 27.113 21.4667 27.113 22.2667 27.046C25.2 26.9121 26.8 25.3054 26.9333 22.3598C27 21.5565 27 21.2887 27 19.0795C27 16.8703 27 16.6025 26.9333 15.7992C26.8 12.8536 25.2 11.2469 22.2667 11.113C21.4667 11.046 21.2 11.046 19 11.046ZM19 14.9289C16.7333 14.9289 14.8667 16.8033 14.8667 19.0795C14.8667 21.3556 16.7333 23.2301 19 23.2301C21.2667 23.2301 23.1333 21.3556 23.1333 19.0795C23.1333 16.8033 21.2667 14.9289 19 14.9289ZM19 21.7573C17.5333 21.7573 16.3333 20.5523 16.3333 19.0795C16.3333 17.6067 17.5333 16.4017 19 16.4017C20.4667 16.4017 21.6667 17.6067 21.6667 19.0795C21.6667 20.5523 20.4667 21.7573 19 21.7573ZM23.2667 13.8577C22.7333 13.8577 22.3333 14.2594 22.3333 14.795C22.3333 15.3305 22.7333 15.7322 23.2667 15.7322C23.8 15.7322 24.2 15.3305 24.2 14.795C24.2 14.2594 23.8 13.8577 23.2667 13.8577Z" fill="#FFFEF4"/>
<path d="M37.5 19.0795C37.5 29.3426 29.2153 37.659 19 37.659C8.7847 37.659 0.5 29.3426 0.5 19.0795C0.5 8.81635 8.7847 0.5 19 0.5C29.2153 0.5 37.5 8.81635 37.5 19.0795Z" stroke="#FFFEF4"/>
</svg>
