<svg width="38" height="39" viewBox="0 0 38 39" fill="none" xmlns="http://www.w3.org/2000/svg">
<path d="M17.0319 25.1046C23.0699 25.1046 26.3718 20.469 26.3718 16.4494C26.3718 16.3177 26.3689 16.1866 26.3624 16.0561C27.0033 15.6268 27.5605 15.0908 28 14.481C27.4118 14.7232 26.7789 14.8863 26.1149 14.9598C26.7926 14.5832 27.313 13.9873 27.5585 13.277C26.9241 13.6256 26.2217 13.8788 25.4742 14.0154C24.8749 13.4242 24.0218 13.0544 23.0779 13.0544C21.2648 13.0544 19.7946 14.4168 19.7946 16.0961C19.7946 16.3349 19.8236 16.5669 19.8796 16.7897C17.1516 16.6627 14.7324 15.452 13.1135 13.6116C12.8313 14.061 12.6688 14.5834 12.6688 15.1404C12.6688 16.1957 13.2484 17.1274 14.1297 17.6726C13.5912 17.6573 13.0853 17.52 12.6429 17.292C12.6422 17.3047 12.6422 17.3175 12.6422 17.3308C12.6422 18.8042 13.7739 20.0342 15.2758 20.313C15.0001 20.3826 14.71 20.4201 14.4105 20.4201C14.199 20.4201 13.9934 20.4005 13.7934 20.3653C14.2112 21.5737 15.4232 22.4533 16.8601 22.4781C15.7364 23.2941 14.3209 23.7803 12.783 23.7803C12.5183 23.7803 12.257 23.7663 12 23.7381C13.4527 24.6009 15.1777 25.1046 17.0319 25.1046Z" fill="#FFFEF4"/>
<path d="M37.5 19.0795C37.5 29.3426 29.2153 37.659 19 37.659C8.7847 37.659 0.5 29.3426 0.5 19.0795C0.5 8.81635 8.7847 0.5 19 0.5C29.2153 0.5 37.5 8.81635 37.5 19.0795Z" stroke="#FFFEF4"/>
</svg>
